<svg width="24" height="23" viewBox="0 0 24 23" fill="none" xmlns="http://www.w3.org/2000/svg">
<path d="M12.0002 16.3889C10.4196 16.3889 9.0438 17.5836 8.33354 19.3461C7.99429 20.1879 8.48109 21.1111 9.12792 21.1111H14.8724C15.5193 21.1111 16.0061 20.1879 15.6668 19.3461C14.9566 17.5836 13.5808 16.3889 12.0002 16.3889Z" stroke="#4979D1" stroke-linecap="round"/>
<path d="M18.1388 5.05554H19.2742C20.4084 5.05554 20.9755 5.05554 21.2714 5.41194C21.5672 5.76833 21.4442 6.30328 21.1982 7.37316L20.8291 8.97789C20.2741 11.3914 18.2436 13.1861 15.7777 13.5555" stroke="#4979D1" stroke-linecap="round" stroke-linejoin="round"/>
<path d="M5.8611 5.05554H4.72568C3.59152 5.05554 3.02445 5.05554 2.7286 5.41194C2.43276 5.76833 2.55577 6.30328 2.80181 7.37316L3.17083 8.97789C3.72584 11.3914 5.75638 13.1861 8.22221 13.5555" stroke="#4979D1" stroke-linecap="round" stroke-linejoin="round"/>
<path d="M12 16.3888C14.853 16.3888 17.2558 11.9857 17.978 5.99134C18.1778 4.33355 18.2777 3.50466 17.7486 2.86341C17.2196 2.22217 16.3655 2.22217 14.6571 2.22217H9.34285C7.63451 2.22217 6.78034 2.22217 6.2513 2.86341C5.72226 3.50466 5.82213 4.33355 6.02188 5.99134C6.74414 11.9857 9.14702 16.3888 12 16.3888Z" stroke="#4979D1" stroke-linecap="round"/>
</svg>
