<svg width="31" height="30" viewBox="0 0 31 30" fill="none" xmlns="http://www.w3.org/2000/svg">
<path d="M15.5 0C12.5333 0 9.63319 0.879734 7.16645 2.52796C4.69971 4.17618 2.77713 6.51885 1.64181 9.25974C0.506499 12.0006 0.209449 15.0166 0.788227 17.9263C1.36701 20.8361 2.79562 23.5088 4.8934 25.6066C6.99119 27.7044 9.66393 29.133 12.5736 29.7118C15.4834 30.2905 18.4994 29.9935 21.2403 28.8582C23.9811 27.7229 26.3238 25.8003 27.972 23.3335C29.6203 20.8668 30.5 17.9667 30.5 15C30.5 13.0302 30.112 11.0796 29.3582 9.25974C28.6044 7.43986 27.4995 5.78628 26.1066 4.3934C24.7137 3.00052 23.0601 1.89563 21.2403 1.14181C19.4204 0.387986 17.4698 0 15.5 0ZM15.5 13.5C16.5553 13.5082 17.5742 13.887 18.3785 14.5703C19.1828 15.2535 19.7214 16.1977 19.9001 17.2378C20.0788 18.2779 19.8863 19.3478 19.3562 20.2603C18.826 21.1728 17.9921 21.87 17 22.23V24H14V22.23C13.1247 21.9205 12.3665 21.3479 11.8294 20.5906C11.2923 19.8333 11.0026 18.9284 11 18H14C14 18.2967 14.088 18.5867 14.2528 18.8333C14.4176 19.08 14.6519 19.2723 14.926 19.3858C15.2001 19.4993 15.5017 19.529 15.7926 19.4712C16.0836 19.4133 16.3509 19.2704 16.5607 19.0607C16.7704 18.8509 16.9133 18.5836 16.9712 18.2926C17.0291 18.0017 16.9994 17.7001 16.8858 17.426C16.7723 17.1519 16.58 16.9176 16.3334 16.7528C16.0867 16.588 15.7967 16.5 15.5 16.5C14.4447 16.4918 13.4258 16.113 12.6215 15.4297C11.8172 14.7465 11.2786 13.8023 11.0999 12.7622C10.9212 11.7221 11.1137 10.6522 11.6438 9.73969C12.174 8.82716 13.0079 8.12997 14 7.77V6H17V7.77C17.8753 8.07947 18.6335 8.6521 19.1706 9.4094C19.7077 10.1667 19.9974 11.0716 20 12H17C17 11.7033 16.912 11.4133 16.7472 11.1666C16.5824 10.92 16.3481 10.7277 16.074 10.6142C15.7999 10.5006 15.4983 10.4709 15.2074 10.5288C14.9164 10.5867 14.6491 10.7296 14.4393 10.9393C14.2296 11.1491 14.0867 11.4164 14.0288 11.7074C13.9709 11.9983 14.0007 12.2999 14.1142 12.574C14.2277 12.8481 14.42 13.0824 14.6666 13.2472C14.9133 13.412 15.2033 13.5 15.5 13.5Z" fill="#F9AA4B"/>
</svg>
