<svg width="22" height="23" viewBox="0 0 22 23" fill="none" xmlns="http://www.w3.org/2000/svg">
<path d="M16.0008 17.3342H15.8569C15.6872 16.5077 15.3883 15.7476 14.9603 15.0539C14.5323 14.3602 14.012 13.7625 13.3995 13.2606C12.787 12.7588 12.097 12.3677 11.3295 12.0873C10.5621 11.8069 9.75768 11.6667 8.91641 11.6667C8.26701 11.6667 7.63975 11.7515 7.03462 11.9213C6.4295 12.091 5.86496 12.3271 5.34102 12.6297C4.81707 12.9323 4.34109 13.3012 3.91307 13.7366C3.48506 14.172 3.11608 14.6517 2.80614 15.1756C2.4962 15.6996 2.25636 16.2641 2.08663 16.8693C1.9169 17.4744 1.83204 18.1016 1.83204 18.751H0.415161C0.415161 17.8655 0.544303 17.0132 0.802588 16.194C1.06087 15.3749 1.43354 14.6185 1.92059 13.9248C2.40764 13.2311 2.98325 12.6149 3.64741 12.0762C4.31157 11.5375 5.06428 11.1132 5.90555 10.8033C5.07166 10.2572 4.42226 9.57087 3.95735 8.74436C3.49244 7.91785 3.25629 7.00278 3.24891 5.99917C3.24891 5.21693 3.3965 4.48267 3.69168 3.79637C3.98687 3.11007 4.38905 2.50863 4.89824 1.99207C5.40743 1.4755 6.00887 1.06962 6.70254 0.774438C7.39622 0.479256 8.13418 0.331665 8.91641 0.331665C9.69864 0.331665 10.4329 0.479256 11.1192 0.774438C11.8055 1.06962 12.4069 1.47181 12.9235 1.981C13.4401 2.49019 13.846 3.09162 14.1411 3.7853C14.4363 4.47898 14.5839 5.21693 14.5839 5.99917C14.5839 6.48622 14.5249 6.9622 14.4068 7.42711C14.2887 7.89202 14.1116 8.33111 13.8755 8.74436C13.6393 9.15762 13.3626 9.53766 13.0453 9.8845C12.728 10.2313 12.3553 10.5376 11.9273 10.8033C12.7538 11.1206 13.5139 11.556 14.2076 12.1094C14.9012 12.6629 15.499 13.3123 16.0008 14.0576V17.3342ZM4.66579 5.99917C4.66579 6.58953 4.77648 7.13931 4.99787 7.6485C5.21925 8.15769 5.52181 8.60784 5.90555 8.99895C6.28929 9.39007 6.73944 9.69632 7.25601 9.91771C7.77258 10.1391 8.32605 10.2498 8.91641 10.2498C9.4994 10.2498 10.0492 10.1391 10.5657 9.91771C11.0823 9.69632 11.5325 9.39376 11.9162 9.01002C12.2999 8.62629 12.6062 8.17613 12.835 7.65957C13.0637 7.143 13.1744 6.58953 13.167 5.99917C13.167 5.41618 13.0563 4.8664 12.835 4.34983C12.6136 3.83327 12.311 3.38311 11.9273 2.99938C11.5435 2.61564 11.0897 2.30939 10.5657 2.08062C10.0418 1.85185 9.49202 1.74116 8.91641 1.74854C8.32605 1.74854 7.77627 1.85923 7.26708 2.08062C6.75789 2.30201 6.30774 2.60457 5.91662 2.98831C5.5255 3.37204 5.21925 3.82589 4.99787 4.34983C4.77648 4.87378 4.66579 5.42356 4.66579 5.99917ZM18.8345 18.751H21.6683V20.1679H18.8345V23.0017H17.4177V20.1679H14.5839V18.751H17.4177V15.9173H18.8345V18.751Z" fill="#4979D1"/>
</svg>
