<svg width="33" height="33" viewBox="0 0 33 33" fill="none" xmlns="http://www.w3.org/2000/svg">
<path d="M3.82502 11.5333C3.82619 10.1161 4.14115 8.71666 4.74728 7.43555C5.35341 6.15445 6.23567 5.02345 7.33073 4.12374C8.42578 3.22404 9.70646 2.57795 11.0808 2.23188C12.4552 1.8858 13.8891 1.84832 15.2797 2.12212C16.6702 2.39593 17.9829 2.97422 19.1235 3.81549C20.264 4.65675 21.2042 5.74012 21.8764 6.98781C22.5486 8.2355 22.9363 9.61655 23.0115 11.0318C23.0867 12.4471 22.8476 13.8614 22.3114 15.1733C22.234 15.2134 22.1577 15.2555 22.0826 15.2997L21.8826 15.4197C21.7584 15.4941 21.6162 15.5334 21.4714 15.5333H19.7786C19.6338 15.5334 19.4917 15.4941 19.3674 15.4197L19.1674 15.2997C18.3461 14.807 17.3753 14.6253 16.4314 14.7877L15.1962 15.0021C14.4378 15.1325 13.7218 15.4432 13.1086 15.9083C12.4954 16.3733 12.0031 16.9789 11.673 17.6741L10.281 20.6069C9.70391 20.4065 9.14725 20.1515 8.61862 19.8453L4.87782 21.0933C4.73961 21.1395 4.59143 21.147 4.44926 21.1151C4.3071 21.0832 4.17634 21.013 4.07112 20.9123C3.96589 20.8115 3.89018 20.6839 3.85217 20.5432C3.81416 20.4026 3.81528 20.2542 3.85542 20.1141L4.99462 16.1285C4.22665 14.7187 3.82451 13.1388 3.82502 11.5333ZM10.225 9.93333C10.225 10.1455 10.3093 10.349 10.4593 10.499C10.6094 10.649 10.8128 10.7333 11.025 10.7333H15.825C16.0372 10.7333 16.2407 10.649 16.3907 10.499C16.5407 10.349 16.625 10.1455 16.625 9.93333C16.625 9.72115 16.5407 9.51767 16.3907 9.36764C16.2407 9.21761 16.0372 9.13333 15.825 9.13333H11.025C10.8128 9.13333 10.6094 9.21761 10.4593 9.36764C10.3093 9.51767 10.225 9.72115 10.225 9.93333ZM11.025 12.3333C10.8128 12.3333 10.6094 12.4176 10.4593 12.5676C10.3093 12.7177 10.225 12.9212 10.225 13.1333C10.225 13.3455 10.3093 13.549 10.4593 13.699C10.6094 13.849 10.8128 13.9333 11.025 13.9333H14.225C14.4372 13.9333 14.6407 13.849 14.7907 13.699C14.9407 13.549 15.025 13.3455 15.025 13.1333C15.025 12.9212 14.9407 12.7177 14.7907 12.5676C14.6407 12.4176 14.4372 12.3333 14.225 12.3333H11.025ZM24.545 16.3653C23.9792 16.2683 23.3974 16.3773 22.905 16.6725L22.705 16.7925C22.3327 17.0154 21.9069 17.1332 21.473 17.1333H19.777C19.3431 17.1332 18.9173 17.0154 18.545 16.7925L18.345 16.6725C17.8522 16.3769 17.2697 16.2679 16.7034 16.3653L15.4666 16.5781C14.9612 16.6654 14.4841 16.8728 14.0756 17.183C13.6671 17.4932 13.3392 17.8971 13.1194 18.3605L11.1994 22.4037C10.3034 24.3077 10.1002 25.8997 10.2906 27.2053C10.4408 28.2738 10.8964 29.2761 11.6026 30.0917C12.0378 30.5973 12.6426 30.7893 13.2186 30.7269C13.7825 30.6561 14.2984 30.3735 14.6618 29.9365L15.9706 28.3845C16.1959 28.1178 16.4767 27.9035 16.7934 27.7565C17.1101 27.6094 17.4551 27.5333 17.8042 27.5333H23.4458C23.7951 27.5335 24.1401 27.6099 24.4568 27.7572C24.7735 27.9045 25.0543 28.1191 25.2794 28.3861L26.5882 29.9365C26.9562 30.3717 27.473 30.6661 28.0314 30.7269C28.609 30.7909 29.2122 30.5973 29.6474 30.0917C30.1946 29.4597 30.7674 28.5093 30.9594 27.2053C31.1514 25.9013 30.9466 24.3061 30.049 22.4053L28.1306 18.3605C27.9109 17.8971 27.5829 17.4932 27.1744 17.183C26.7659 16.8728 26.2889 16.6654 25.7834 16.5781L24.545 16.3653ZM20.625 22.7333C20.3068 22.7333 20.0015 22.6069 19.7765 22.3819C19.5514 22.1568 19.425 21.8516 19.425 21.5333C19.425 21.2151 19.5514 20.9098 19.7765 20.6848C20.0015 20.4598 20.3068 20.3333 20.625 20.3333C20.9433 20.3333 21.2485 20.4598 21.4735 20.6848C21.6986 20.9098 21.825 21.2151 21.825 21.5333C21.825 21.8516 21.6986 22.1568 21.4735 22.3819C21.2485 22.6069 20.9433 22.7333 20.625 22.7333Z" fill="#4979D1"/>
</svg>
