<svg width="33" height="33" viewBox="0 0 33 33" fill="none" xmlns="http://www.w3.org/2000/svg">
<path d="M10.5892 10.0476C11.7259 10.0476 12.8159 9.59608 13.6197 8.79235C14.4234 7.98863 14.8749 6.89854 14.8749 5.7619C14.8749 4.62525 14.4234 3.53517 13.6197 2.73144C12.8159 1.92771 11.7259 1.47618 10.5892 1.47618C9.45257 1.47618 8.36249 1.92771 7.55876 2.73144C6.75503 3.53517 6.3035 4.62525 6.3035 5.7619C6.3035 6.89854 6.75503 7.98863 7.55876 8.79235C8.36249 9.59608 9.45257 10.0476 10.5892 10.0476ZM3.16064 14.027C3.16064 12.7756 4.17436 11.7619 5.42579 11.7619H11.8258C11.3249 13.0256 11.3164 14.4312 11.8018 15.7008C12.2872 16.9705 13.2313 18.0118 14.4475 18.619H11.7126C11.0372 18.6186 10.3768 18.8191 9.81554 19.195C9.25428 19.5709 8.81747 20.1051 8.56064 20.7299C6.26922 20.3059 4.8955 19.1619 4.11036 17.8842C3.16064 16.3448 3.16064 14.7539 3.16064 14.4796V14.027ZM21.1606 13.7619C21.1606 14.6213 20.9081 15.4213 20.4726 16.0933C19.5734 16.5429 18.7602 17.1471 18.0704 17.8785C17.2068 18.1293 16.2862 18.1021 15.4389 17.8008C14.5917 17.4995 13.8606 16.9393 13.3494 16.1996C12.8381 15.4598 12.5724 14.578 12.59 13.6789C12.6077 12.7798 12.9076 11.9091 13.4475 11.1899C13.9874 10.4707 14.7398 9.93961 15.5982 9.67172C16.4566 9.40383 17.3776 9.41275 18.2306 9.69722C19.0837 9.98168 19.8257 10.5273 20.3515 11.2568C20.8774 11.9862 21.1604 12.8626 21.1606 13.7619ZM11.7115 19.7619H16.7206C16.0708 20.995 15.7315 22.368 15.7321 23.7619C15.7321 25.6865 16.3664 27.4625 17.4372 28.8933C17.2544 28.9009 17.0669 28.9048 16.8749 28.9048C13.3252 28.9048 11.3892 27.5013 10.3949 25.8853C9.44636 24.3436 9.44636 22.7539 9.44636 22.4785V22.027C9.44636 20.7756 10.4601 19.7619 11.7115 19.7619ZM30.5892 14.4785C30.5892 14.7185 30.5892 15.9699 29.9504 17.3128C28.3891 15.9417 26.3813 15.1871 24.3035 15.1905C23.5126 15.1905 22.7469 15.2979 22.0201 15.499C22.4282 14.2807 22.3938 12.9574 21.9229 11.7619H28.3229C29.5755 11.7619 30.5892 12.7756 30.5892 14.027V14.4785ZM27.4464 5.7619C27.4464 6.89854 26.9948 7.98863 26.1911 8.79235C25.3874 9.59608 24.2973 10.0476 23.1606 10.0476C22.024 10.0476 20.9339 9.59608 20.1302 8.79235C19.3265 7.98863 18.8749 6.89854 18.8749 5.7619C18.8749 4.62525 19.3265 3.53517 20.1302 2.73144C20.9339 1.92771 22.024 1.47618 23.1606 1.47618C24.2973 1.47618 25.3874 1.92771 26.1911 2.73144C26.9948 3.53517 27.4464 4.62525 27.4464 5.7619ZM31.7321 23.7619C31.7321 25.7321 30.9494 27.6216 29.5563 29.0147C28.1632 30.4078 26.2737 31.1905 24.3035 31.1905C22.3333 31.1905 20.4438 30.4078 19.0507 29.0147C17.6576 27.6216 16.8749 25.7321 16.8749 23.7619C16.8749 21.7917 17.6576 19.9022 19.0507 18.5091C20.4438 17.116 22.3333 16.3333 24.3035 16.3333C26.2737 16.3333 28.1632 17.116 29.5563 18.5091C30.9494 19.9022 31.7321 21.7917 31.7321 23.7619ZM24.8749 19.1905C24.8749 19.0389 24.8147 18.8936 24.7076 18.7864C24.6004 18.6792 24.4551 18.619 24.3035 18.619C24.1519 18.619 24.0066 18.6792 23.8994 18.7864C23.7923 18.8936 23.7321 19.0389 23.7321 19.1905V23.1905H19.7321C19.5805 23.1905 19.4352 23.2507 19.328 23.3578C19.2208 23.465 19.1606 23.6103 19.1606 23.7619C19.1606 23.9135 19.2208 24.0588 19.328 24.166C19.4352 24.2731 19.5805 24.3333 19.7321 24.3333H23.7321V28.3333C23.7321 28.4849 23.7923 28.6302 23.8994 28.7374C24.0066 28.8446 24.1519 28.9048 24.3035 28.9048C24.4551 28.9048 24.6004 28.8446 24.7076 28.7374C24.8147 28.6302 24.8749 28.4849 24.8749 28.3333V24.3333H28.8749C29.0265 24.3333 29.1718 24.2731 29.279 24.166C29.3862 24.0588 29.4464 23.9135 29.4464 23.7619C29.4464 23.6103 29.3862 23.465 29.279 23.3578C29.1718 23.2507 29.0265 23.1905 28.8749 23.1905H24.8749V19.1905Z" fill="#4979D1"/>
</svg>
