<svg width="22" height="22" viewBox="0 0 22 22" fill="none" xmlns="http://www.w3.org/2000/svg">
<path d="M15.3951 18.3705V13.6297M16.7823 13.6297V12.4445M16.7823 19.5556V18.3705M15.3951 16.0001H18.1695M18.1695 16.0001C18.6292 16.0001 19.0019 16.398 19.0019 16.889V17.4816C19.0019 17.9725 18.6292 18.3705 18.1695 18.3705H14.5627M18.1695 16.0001C18.6292 16.0001 19.0019 15.6021 19.0019 15.1112V14.5186C19.0019 14.0276 18.6292 13.6297 18.1695 13.6297H14.5627" stroke="#4979D1" stroke-linecap="round" stroke-linejoin="round"/>
<path d="M13.396 3.72102C12.1511 2.9463 8.95611 1.45923 6.0781 1.83879C7.81899 3.05657 8.73484 3.71156 11.2055 5.94583M16.8374 7.21654C17.1681 7.76461 17.7213 8.82567 18.1087 9.93058M14.647 9.44133C14.862 9.68649 15.1234 10.055 15.3106 10.2724M9.5377 9.2608L3.3685 15.5269C2.86808 16.0352 2.8756 16.8668 3.38528 17.3845C3.89497 17.9022 4.71381 17.9099 5.21423 17.4016L11.3835 11.1356M10.8625 7.31177L13.3021 9.78978C13.5731 10.0649 14.0113 10.066 14.281 9.792L17.3035 6.72204C17.5732 6.44813 17.5722 6.00303 17.3013 5.72787L14.8616 3.2499C14.5907 2.97475 14.1525 2.97373 13.8828 3.24764L10.8603 6.31761C10.5906 6.59151 10.5916 7.03661 10.8625 7.31177Z" stroke="#4979D1" stroke-linecap="round" stroke-linejoin="round"/>
</svg>
