<svg width="22" height="22" viewBox="0 0 22 22" fill="none" xmlns="http://www.w3.org/2000/svg">
<path d="M14.0001 15.1111C13.2894 15.6644 12.3558 16 11.3334 16C10.3109 16 9.37744 15.6644 8.66675 15.1111" stroke="#4979D1" stroke-linecap="round"/>
<path d="M2.75693 11.7453C2.44313 9.70328 2.28623 8.68233 2.67229 7.77722C3.05833 6.8721 3.91483 6.25282 5.62782 5.01427L6.90768 4.08888C9.03862 2.54814 10.1041 1.77777 11.3335 1.77777C12.5628 1.77777 13.6283 2.54814 15.7593 4.08888L17.0391 5.01427C18.7522 6.25282 19.6086 6.8721 19.9946 7.77722C20.3807 8.68233 20.2238 9.70328 19.91 11.7453L19.6425 13.4866C19.1976 16.3812 18.9752 17.8286 17.937 18.6921C16.8989 19.5555 15.3811 19.5555 12.3458 19.5555H10.3212C7.28577 19.5555 5.76806 19.5555 4.72991 18.6921C3.69177 17.8286 3.46935 16.3812 3.02452 13.4866L2.75693 11.7453Z" stroke="#4979D1" stroke-linejoin="round"/>
</svg>
