<svg width="33" height="33" viewBox="0 0 33 33" fill="none" xmlns="http://www.w3.org/2000/svg">
<path d="M19.1078 23.1333L21.7081 28.3333L24.3481 25.6261L28.375 25.6665L24.6284 18.2265V18.2137M13.6422 23.1333L11.0419 28.3333L8.40188 25.6261L4.375 25.6665L8.12156 18.2265V18.2137" stroke="#4979D1" stroke-width="1.85" stroke-linecap="round" stroke-linejoin="round"/>
<path d="M26.0818 13.6665C26.0818 14.6802 25.1884 15.5333 24.8946 16.4402C24.6015 17.3465 24.8018 18.5868 24.2284 19.3733C23.655 20.1599 22.4281 20.3333 21.7081 20.9202C20.9881 21.5071 20.375 22.6002 19.4418 22.9068C18.5081 23.2133 17.4546 22.6265 16.4415 22.6265C15.4284 22.6265 14.3487 23.1999 13.4418 22.9068C12.535 22.613 11.9615 21.4796 11.175 20.9202C10.3878 20.3602 9.16153 20.1599 8.58809 19.3733C8.01465 18.5861 8.22841 17.3733 7.92185 16.4402C7.61465 15.5065 6.66809 14.6802 6.66809 13.6665C6.66809 12.6527 7.56153 11.8002 7.85465 10.8933C8.14777 9.98645 7.94809 8.74677 8.52153 7.96021C9.09497 7.17365 10.3219 7.00021 11.1084 6.41333C11.895 5.82645 12.375 4.73333 13.3747 4.42678C14.375 4.11958 15.3618 4.70646 16.375 4.70646C17.3881 4.70646 18.4678 4.13302 19.3753 4.42678C20.2815 4.71989 20.855 5.85333 21.7081 6.41333C22.5612 6.97333 23.7215 7.17301 24.295 7.96021C24.8684 8.74741 24.6553 9.96021 24.9618 10.8933C25.2684 11.8265 26.0818 12.6533 26.0818 13.6665ZM16.375 9.66645C15.314 9.66645 14.2965 10.0879 13.5463 10.8381C12.7961 11.5883 12.3747 12.6058 12.3747 13.6668C12.3747 14.7277 12.7961 15.7452 13.5463 16.4954C14.2965 17.2456 15.314 17.6671 16.375 17.6671C17.4358 17.6671 18.4533 17.2457 19.2034 16.4955C19.9535 15.7454 20.375 14.728 20.375 13.6671C20.375 12.6062 19.9535 11.5888 19.2034 10.8387C18.4533 10.0885 17.4358 9.66645 16.375 9.66645Z" stroke="#4979D1" stroke-width="1.85" stroke-linecap="round" stroke-linejoin="round"/>
</svg>
