<svg width="28" height="33" viewBox="0 0 28 33" fill="none" xmlns="http://www.w3.org/2000/svg">
<path d="M20.3043 25.6667L15.5595 19.9333C15.3572 19.6889 15.2513 19.3836 15.2417 19.0173C15.2321 18.6511 15.3289 18.3342 15.5319 18.0667C15.7349 17.7991 15.9924 17.6658 16.3043 17.6667C16.6162 17.6676 16.8829 17.8009 17.1043 18.0667L21.8491 23.8V19C21.8491 18.6222 21.9551 18.3058 22.1669 18.0507C22.3788 17.7956 22.6407 17.6676 22.9526 17.6667C23.2645 17.6658 23.5268 17.7938 23.7394 18.0507C23.952 18.3076 24.0575 18.624 24.056 19V27C24.056 27.3778 23.9501 27.6947 23.7382 27.9507C23.5264 28.2067 23.2645 28.3342 22.9526 28.3333H16.3319C16.0193 28.3333 15.7574 28.2053 15.5463 27.9493C15.3351 27.6933 15.2292 27.3769 15.2285 27C15.2277 26.6231 15.3337 26.3067 15.5463 26.0507C15.7588 25.7947 16.0207 25.6667 16.3319 25.6667H20.3043ZM7.50432 21.6667H5.29742C4.98478 21.6667 4.72289 21.5387 4.51177 21.2827C4.30064 21.0267 4.19471 20.7102 4.19397 20.3333C4.19324 19.9564 4.29917 19.64 4.51177 19.384C4.72436 19.128 4.98625 19 5.29742 19H10.8147V15H6.40087C5.79397 15 5.27462 14.7391 4.8428 14.2173C4.41099 13.6956 4.19471 13.0676 4.19397 12.3333V8.33333C4.19397 7.6 4.41025 6.97244 4.8428 6.45067C5.27535 5.92889 5.79471 5.66755 6.40087 5.66667H7.50432C7.50432 5.28889 7.61025 4.97244 7.82211 4.71733C8.03397 4.46222 8.29586 4.33422 8.60777 4.33333C8.91967 4.33244 9.18193 4.46044 9.39453 4.71733C9.60712 4.97422 9.71269 5.29067 9.71121 5.66667H11.9181C12.2308 5.66667 12.493 5.79467 12.7049 6.05067C12.9167 6.30667 13.0223 6.62311 13.0216 7C13.0208 7.37689 12.9149 7.69378 12.7038 7.95067C12.4926 8.20755 12.2308 8.33511 11.9181 8.33333H6.40087V12.3333H10.8147C11.4216 12.3333 11.9413 12.5947 12.3738 13.1173C12.8064 13.64 13.0223 14.2676 13.0216 15V19C13.0216 19.7333 12.8057 20.3613 12.3738 20.884C11.942 21.4067 11.4223 21.6676 10.8147 21.6667H9.71121C9.71121 22.0444 9.60528 22.3613 9.39342 22.6173C9.18156 22.8733 8.91967 23.0009 8.60777 23C8.29586 22.9991 8.03397 22.8711 7.82211 22.616C7.61025 22.3609 7.50432 22.0444 7.50432 21.6667Z" fill="#4979D1"/>
</svg>
